<?xml version="1.0" encoding="UTF-8"?><svg id="v3" xmlns="http://www.w3.org/2000/svg" viewBox="0 0 64 64"><defs><style>.cls-1{fill:#f5f5f5;}</style></defs><path class="cls-1" d="M63.96,30.32l-.13-1.67-.22-1.66-.3-1.65-.39-1.63-.47-1.61-.56-1.58-.64-1.55-.72-1.51-.8-1.47-.88-1.43-.95-1.38-1.02-1.33-1.09-1.28-1.15-1.22-1.22-1.15-1.28-1.09-1.33-1.02-1.38-.95-1.43-.87-1.47-.8-1.51-.72-1.55-.64-1.58-.56-1.61-.47-1.63-.39-1.65-.3-1.66-.22-1.67-.13L32,0l-1.68,.04-1.67,.13-1.66,.22-1.65,.3-1.63,.39-1.61,.47-1.58,.56-1.55,.64-1.52,.72-1.47,.8-1.43,.87-1.38,.95-1.33,1.02-1.28,1.09-1.22,1.15-1.15,1.22-1.09,1.28-1.02,1.33-.95,1.38-.88,1.43-.8,1.47-.72,1.52-.64,1.55-.56,1.58-.47,1.61-.39,1.63-.3,1.65-.22,1.66-.13,1.67L0,32l.04,1.68,.13,1.67,.22,1.66,.3,1.65,.39,1.63,.47,1.61,.56,1.58,.64,1.55,.72,1.52,.8,1.47,.88,1.43,.95,1.38,1.02,1.33,1.09,1.28,1.15,1.22,1.22,1.15,1.28,1.09,1.33,1.02,1.38,.95,1.43,.87,1.47,.8,1.52,.72,1.55,.64,1.58,.56,1.61,.47,1.63,.39,1.65,.3,1.66,.22,1.67,.13,1.68,.04h0l1.68-.05,1.67-.13,1.66-.22,1.65-.3,1.63-.39,1.61-.47,1.58-.56,1.55-.64,1.51-.72,1.47-.8,1.43-.87,1.38-.95,1.33-1.02,1.28-1.09,1.22-1.15,1.15-1.22,1.09-1.28,1.02-1.33,.95-1.38,.88-1.43,.8-1.47,.72-1.52,.64-1.55,.56-1.58,.47-1.61,.39-1.63,.3-1.65,.22-1.66,.13-1.67,.04-1.66-.04-1.69ZM35.23,1.33l1.6,.21,1.59,.29,1.57,.38,1.55,.46,1.52,.54,1.49,.62,1.46,.69,1.42,.77,1.38,.84,1.33,.91,1.28,.98,1.23,1.05,1.17,1.11,1.11,1.17,1.05,1.23,.98,1.28,.91,1.33,.84,1.38,.77,1.42,.69,1.46,.62,1.49,.54,1.52,.46,1.55,.38,1.57,.29,1.59,.21,1.6,.13,1.61,.03,1.07h-6.69l-.09-1.39-.1-.83-.13-.82-.17-.81-.2-.8-.23-.78-.26-.77-.29-.75-.31-.73-.34-.7-.36-.68-.38-.66-.41-.63-.42-.6-.44-.58-.45-.55-.94-1.01-.79-.74-.05-.43-.13-.69-.2-.72-.28-.76-.37-.79-.47-.83-.58-.86-.7-.87-.84-.9-.99-.9-.55-.45-.59-.44-.63-.43-.67-.42-.71-.41-.76-.38-.8-.36-.83-.34-.87-.31-.9-.28-.93-.24-.96-.2-.98-.15-1-.12-1.01-.07h-.42V1.18l1.03,.03,1.61,.13Zm3.27,17.77l-.68,.48-.99,.5-1.11,.38-1.44,.31-1.69,.16v-4.05h0l.89,.06,.74,.09,.73,.13,.73,.16,.71,.2,.7,.23,.69,.27,.68,.3,.55,.28-.52,.51Zm.54,1.03l.57-.5,.42-.48,.98,.66,.59,.46,.57,.49,.54,.51,.51,.54,.49,.56,.46,.59,.43,.61,.22,.34-.43,.21-1.36,.54-1.42,.43-2.1,.46-.32-.96-.28-.71-.3-.71-.34-.7-.36-.69-.39-.68-.03-.05h-.01l.97-.51,.63-.43Zm-6.44,1.96l1.06-.07,1.6-.25,1.08-.28,.53,.88,.34,.65,.31,.66,.29,.67,.26,.67,.25,.74-2.41,.27-3.32,.15v-4.08h.01Zm3.4,5.09l2.63-.3,.13,.52,.21,1.05,.15,1.06,.1,1.06,.04,.85h-6.68v-4.08l3.41-.15Zm3.27,5.39l-.06,1.17-.12,1.06-.17,1.05-.22,1.05-.06,.21-2.64-.3-3.41-.15v-4.08h6.69Zm-6.68,9.31v-4.08l2.93,.12,2.8,.3-.24,.72-.4,1.01-.46,.99-.52,.97-.37,.59-.57-.16-1.58-.3-1.59-.13h0Zm.42,1.2l1.74,.22,1.4,.36,1.07,.42,.76,.42,.65,.5,.38,.39-.52,.26-.68,.3-.69,.27-.7,.23-.71,.2-.73,.17-.73,.13-.74,.09-.74,.06h-.18v-4.04l.42,.02Zm-.42,5.18l1.03-.06,.8-.1,.79-.14,.78-.18,.77-.21,.76-.25,.75-.29,.73-.33,.61-.31,.09,.31,.05,.57v.2l-.06,.42-.13,.44-.21,.46-.29,.47-.38,.47-.47,.47-.57,.45-.67,.43-.75,.38-.84,.33-.9,.26-.96,.18-.92,.09v-4.07h.01Zm6.99-3.96l-.57-.49-.84-.55-.74-.36h.01l.26-.41,.55-1.03,.49-1.05,.42-1.07,.31-.93,1.37,.28,1.8,.5,1.38,.51,.77,.36-.63,.92-.46,.59-.49,.56-.51,.54-.54,.51-.56,.49-.59,.46-.61,.43-.39,.25-.44-.5Zm4.52-5.83l-1.11-.4-1.52-.43-1.69-.36,.27-1.22,.18-1.11,.12-1.12,.06-1.12v-.15h6.69l-.06,.89-.09,.74-.13,.73-.16,.73-.2,.71-.23,.7-.27,.69-.3,.68-.31,.61-1.26-.58Zm-3.68-7.08h-.01l-.04-.93-.11-1.12-.16-1.12-.22-1.1-.12-.46,2.09-.46,1.51-.46,1.1-.43,.89-.42,.3,.59,.3,.68,.27,.69,.23,.7,.2,.71,.17,.73,.13,.73,.09,.74,.06,.74v.18h-6.69Zm5.81-8.37l-.42,.29-.72-1.06-.49-.63-.52-.6-.55-.58-.58-.55-.61-.52-.63-.49-.66-.46-.43-.27,.15-.44,.1-.52,.03-.55-.02-.28-.09-.58-.18-.59-.22-.48,.55,.05,1.15,.18,1.19,.29,.61,.19,.62,.22,.62,.26,.62,.3,.63,.34,.63,.38,.63,.42,.62,.46,.44,.36v.25l-.02,.49-.06,.45-.09,.42-.12,.39-.14,.37-.17,.35-.38,.63-.45,.57-.51,.5-.55,.45Zm1.41-7.09l-.68-.41-.68-.36-.68-.32-.67-.28-.67-.25-.66-.21-.65-.18-.64-.14-.63-.11-.62-.09-.61-.05-.89-.03h.01l-.64-.65-.67-.53-.76-.49-.86-.43-.94-.37-1.01-.29-1.06-.2-1.06-.1V6.4l1.32,.07,.94,.11,.93,.15,.91,.19,.89,.22,.85,.26,.82,.29,.79,.32,.75,.34,.71,.36,.67,.38,.63,.39,.59,.41,1.07,.83,.92,.84,.77,.82,.65,.81,.53,.78,.43,.75,.33,.71,.25,.67,.11,.37-.81-.54Zm-14.66-4.28l.98,.13,.93,.22,.87,.29,.8,.36,.71,.41,.62,.44,.52,.46,.43,.47,.34,.47,.25,.46,.17,.45,.1,.43,.04,.41-.02,.38-.12,.53-.63-.32-.73-.33-.75-.29-.76-.25-.77-.21-.78-.18-.79-.13-.79-.1-.79-.06h-.21v-4.07l.41,.03Zm-9.41,20.9l.07,1.3,.12,1.12,.18,1.11,.24,1.1,.03,.09-2.09,.46-1.51,.46-1.1,.43-.89,.42-.3-.59-.3-.68-.27-.69-.23-.7-.2-.71-.17-.73-.13-.73-.09-.74-.06-.74v-.17h6.69Zm1.02-12.73l.59,.47,.65,.4,.73,.36-.44,.75-.36,.69-.33,.7-.3,.7-.28,.71-.25,.72-.06,.21-1.36-.28-1.8-.5-1.38-.51-.77-.36h-.01l.63-.91,.45-.59,.49-.57,.51-.54,.54-.51,.56-.49,.59-.46,.61-.43,.39-.25,.62,.67Zm-.31-3.15v-.2l.06-.42,.13-.44,.2-.46,.29-.47,.38-.47,.47-.47,.57-.46,.66-.43,.75-.38,.84-.33,.9-.26,.96-.18,.92-.09v4.07l-1.03,.06-.79,.1-.79,.14-.78,.18-.77,.21-.76,.25-.75,.29-.73,.33-.61,.3-.09-.31-.05-.57Zm-4.39,8.79l1.11,.4,1.52,.43,1.7,.36-.34,1.6-.16,1.12-.1,1.12-.04,.9h-6.69l.06-.9,.09-.74,.13-.73,.16-.73,.2-.71,.23-.7,.27-.69,.3-.68,.31-.61,1.26,.58Zm-.25,14.37l1.36-.54,1.42-.43,2.1-.46,.32,.96,.43,1.07,.49,1.05,.56,1.03,.24,.38-.97,.5-.62,.43-.57,.5-.42,.48-.98-.66-.59-.45-.57-.49-.54-.51-.51-.54-.49-.56-.46-.59-.43-.61-.22-.34,.42-.21Zm6.04-1.64l2.41-.27,3.32-.15v4.08l-1.06,.07-1.6,.25-1.08,.28-.35-.55-.52-.97-.46-.99-.4-1.01-.25-.75h-.01Zm-.68,7.17l.52-.51,.68-.48,.99-.5,1.11-.38,1.44-.31,1.69-.16v4.05l-.89-.06-.74-.09-.73-.13-.73-.16-.71-.2-.7-.23-.69-.27-.68-.3-.55-.28h0Zm3-8.6l-2.64,.3-.28-1.22-.17-1.05-.12-1.06-.06-1.06v-.14h6.68v4.08l-3.41,.15Zm-3.26-5.39h.01l.03-.82,.1-1.06,.15-1.05,.21-1.05,.14-.55,2.64,.3,3.41,.15v4.08h-6.68Zm3.75-5.36l-2.8-.3h-.01l.25-.72,.26-.67,.29-.67,.31-.66,.34-.65,.37-.63,.17-.27,.58,.17,1.58,.3,1.59,.13v4.08l-2.93-.12Zm2.51-5.15l-1.74-.22-1.4-.36-1.07-.42-.76-.42-.65-.5-.38-.39h0l.52-.27,.68-.3,.69-.27,.7-.23,.71-.2,.73-.17,.73-.13,.74-.09,.74-.06h.18v4.05l-.43-.02Zm.42-10.41l-.54,.04-1.08,.15-1.04,.25-.98,.33-.9,.41-.81,.46-.71,.51-.61,.55-.32,.35-1.52,.09-1.25,.2-.64,.14-.65,.18-.66,.21-.67,.25-.67,.28-.68,.32-.68,.36-.68,.41-.68,.45-.11,.08,.09-.33,.25-.67,.33-.71,.42-.75,.53-.78,.65-.82,.77-.83,.92-.84,1.07-.83,.6-.41,.63-.39,.68-.38,.71-.36,.75-.34,.78-.32,.83-.29,.85-.26,.89-.23,.91-.19,.93-.15,.94-.11,.96-.06h.39v4.07Zm-15.09,6.87l.63-.42,.63-.38,.63-.34,.62-.3,.62-.26,.61-.23,.61-.19,.6-.17,1.17-.23,1.13-.13h.02l-.11,.22-.22,.59-.13,.59-.04,.57,.04,.55,.11,.52,.14,.41-1.11,.75-.63,.49-.6,.52-.58,.55-.55,.58-.52,.61-.49,.63-.46,.66-.24,.38-.68-.5-.53-.47-.48-.53-.42-.59-.35-.67-.14-.37-.12-.39-.1-.42-.06-.45-.02-.48v-.3h-.01l1.04-.81Zm-.97,4.86l.54,.67,.59,.59,.63,.51,.51,.35-.35,.7-.33,.73-.29,.75-.25,.76-.21,.77-.18,.78-.13,.79-.1,.79-.06,.8v.2h-6.68l.07-1.26,.09-.78,.12-.77,.15-.76,.19-.75,.22-.74,.25-.72,.27-.7,.29-.68,.32-.66,.34-.63,.36-.61,.38-.59,.8-1.1,.42-.51,.86-.94,.06,.42,.11,.51,.15,.48,.18,.45,.2,.42,.22,.39,.25,.37Zm-6.32,10.35h6.7l.06,1.03,.1,.79,.14,.79,.18,.78,.21,.77,.25,.76,.29,.75,.33,.73,.34,.67-.53,.37-.63,.52-.59,.59-.54,.67-.25,.37-.22,.39-.2,.42-.18,.45-.14,.48-.11,.51-.05,.37-.27-.28-.86-.98-.81-1.08-.38-.58-.37-.6-.35-.63-.33-.65-.3-.67-.28-.69-.26-.71-.22-.73-.2-.75-.17-.76-.14-.77-.11-.78-.07-.79-.04-.75h.01Zm6.25,12.99l.03-.49,.06-.45,.09-.42,.12-.39,.14-.37,.17-.35,.38-.63,.45-.57,.51-.5,.55-.45,.42-.29,.72,1.06,.49,.63,.52,.6,.55,.58,.58,.55,.61,.52,.63,.49,.66,.46,.43,.27-.15,.45-.1,.52-.03,.55,.02,.28,.09,.58,.18,.59,.21,.47-.54-.04-.86-.12-.88-.19-.9-.26-.92-.33-.93-.41-.95-.5-.47-.28-.94-.63-.9-.7h-.01v-.26Zm.73,2.25l1.02,.63,1.01,.53,1.01,.44,.99,.35,.98,.28,.96,.2,.93,.13,.91,.07h.58l.64,.66,.67,.53,.76,.49,.86,.43,.94,.37,1.01,.29,1.06,.2,1.06,.1v4.08l-1.32-.07-.94-.11-.93-.15-.91-.19-.89-.22-.85-.26-.82-.29-.79-.32-.75-.34-.71-.36-.67-.38-.63-.39-.59-.41-1.07-.83-.92-.84-.77-.82-.65-.81-.53-.78-.42-.75-.33-.71-.25-.67-.1-.36,.46,.32Zm15.01,4.51l-.98-.13-.93-.22-.87-.29-.79-.36-.71-.41-.62-.44-.52-.46-.43-.47-.34-.47-.25-.46-.17-.45-.1-.43-.04-.41,.02-.38,.12-.53h0l.63,.33,.73,.33,.75,.29,.76,.25,.77,.21,.78,.18,.79,.13,.79,.1,.8,.06h.2v4.07l-.4-.03Zm1.56,1.18h0l.54-.04,1.08-.15,1.04-.25,.98-.33,.9-.41,.81-.46,.71-.51,.61-.55,.33-.35,.62-.02,.91-.07,.93-.14,.96-.2,.98-.28,1-.36,1.01-.44,1-.52,.51-.3,.96-.63-.09,.33-.25,.67-.33,.71-.42,.75-.52,.78-.65,.82-.77,.83-.92,.84-1.07,.83-.6,.41-.63,.39-.68,.38-.71,.36-.75,.34-.78,.32-.83,.29-.85,.26-.89,.23-.91,.19-.93,.15-.94,.11-.96,.06h-.39v-4.07Zm15.72-7.35l-.94,.68-.93,.58-.94,.49-.93,.41-.92,.33-.9,.26-.89,.19-.86,.13-.58,.05,.11-.21,.22-.59,.13-.59,.04-.57-.04-.55-.11-.52-.14-.41h.02l1.11-.75,.63-.49,.6-.52,.58-.55,.55-.58,.52-.61,.49-.63,.46-.66,.24-.38,.4,.28,.55,.44,.51,.5,.45,.56,.39,.63,.17,.35,.14,.37,.12,.39,.1,.42,.06,.45,.02,.48v.3l-.42,.34Zm.36-4.4l-.54-.67-.59-.59-.63-.51-.51-.35h0l.35-.69,.33-.73,.29-.75,.25-.76,.21-.77,.18-.78,.13-.79,.1-.79,.06-.8v-.2h6.7l-.04,.73-.07,.79-.11,.78-.13,.77-.17,.76-.2,.75-.22,.73-.25,.71-.28,.69-.3,.67-.33,.65-.35,.63-.37,.61-.38,.58-.4,.55-.84,1.04-.73,.77-.06-.41-.11-.51-.15-.48-.18-.45-.2-.42-.22-.39-.25-.37Zm-.37-10.35h-.02l-.06-1.02-.1-.79-.14-.79-.18-.78-.21-.77-.25-.76-.29-.75-.33-.73-.34-.67,.53-.37,.63-.52,.59-.59,.54-.67,.25-.37,.22-.39,.2-.42,.18-.45,.14-.48,.11-.51,.05-.37,.42,.44,.85,1,.81,1.1,.38,.59,.36,.61,.34,.63,.32,.66,.3,.68,.27,.7,.25,.72,.22,.74,.19,.75,.15,.76,.13,.77,.1,.78,.06,.79,.02,.49h-6.7ZM1.32,28.77l.21-1.6,.29-1.59,.38-1.57,.46-1.55,.54-1.52,.62-1.49,.69-1.46,.77-1.42,.84-1.38,.91-1.33,.98-1.28,1.05-1.23,1.11-1.17,1.17-1.11,1.23-1.05,1.28-.98,1.33-.92,1.38-.84,1.42-.77,1.46-.69,1.49-.62,1.52-.54,1.55-.46,1.57-.38,1.59-.29,1.6-.21,1.61-.13,1.05-.03V5.24l-1.46,.08-1,.12-.98,.16-.96,.2-.93,.24-.9,.28-.87,.31-.83,.34-.8,.36-.75,.38-.72,.41-.67,.42-.63,.43-.59,.44-.55,.45-.99,.9-.84,.91-.7,.89-.58,.86-.46,.83-.37,.8-.28,.76-.2,.73-.13,.69-.04,.38-.33,.29-.96,.96-.91,1.07-.44,.58-.42,.6-.4,.63-.38,.66-.36,.68-.34,.7-.31,.73-.29,.75-.26,.77-.23,.78-.2,.8-.17,.81-.13,.82-.1,.83-.06,.84-.02,.53H1.17l.03-1.04,.13-1.61ZM28.77,62.66l-1.6-.21-1.59-.29-1.57-.38-1.55-.46-1.52-.54-1.49-.62-1.46-.69-1.42-.77-1.38-.84-1.33-.91-1.28-.98-1.23-1.05-1.17-1.11-1.11-1.17-1.05-1.23-.98-1.28-.92-1.33-.84-1.38-.77-1.42-.69-1.46-.62-1.49-.54-1.52-.46-1.55-.38-1.57-.29-1.59-.21-1.6-.13-1.61-.03-1.04H7.87l.04,.83,.07,.84,.11,.83,.14,.82,.18,.81,.21,.79,.24,.78,.27,.76,.3,.74,.33,.71,.35,.69,.37,.67,.39,.65,.41,.62,.43,.59,.44,.57,.45,.54,.94,.99,.63,.58,.05,.43,.13,.69,.2,.72,.28,.76,.37,.79,.47,.83,.58,.86,.7,.87,.84,.9,.99,.9,1.15,.89,.63,.43,.67,.42,.71,.41,.76,.38,.8,.36,.83,.34,.87,.31,.9,.28,.93,.24,.96,.2,.98,.15,1,.12,1.01,.07h.42v4.07l-1.03-.03-1.61-.13Zm33.9-27.44l-.21,1.6-.29,1.59-.38,1.57-.46,1.55-.54,1.52-.62,1.49-.69,1.46-.77,1.42-.84,1.38-.91,1.33-.98,1.28-1.05,1.23-1.11,1.17-1.17,1.11-1.23,1.05-1.28,.98-1.33,.91-1.38,.84-1.42,.77-1.46,.69-1.49,.62-1.52,.54-1.55,.46-1.57,.38-1.59,.29-1.6,.21-1.61,.13-1.03,.03v-4.03l1.46-.08,1-.12,.98-.16,.96-.2,.93-.24,.9-.28,.88-.31,.83-.34,.8-.36,.75-.38,.72-.41,.67-.42,.63-.43,.59-.44,.55-.45,.99-.9,.84-.91,.7-.89,.58-.86,.46-.83,.37-.8,.28-.76,.2-.73,.13-.69,.04-.38,1.13-1.08,.92-1.05,.44-.57,.43-.59,.41-.62,.39-.65,.37-.67,.35-.69,.32-.72,.3-.74,.27-.76,.24-.78,.21-.79,.18-.81,.14-.82,.11-.83,.07-.84,.04-.81h6.68l-.03,1-.13,1.61Z"/></svg>