<?xml version="1.0" encoding="UTF-8"?><svg id="BG" xmlns="http://www.w3.org/2000/svg" xmlns:xlink="http://www.w3.org/1999/xlink" viewBox="0 0 834 720"><defs><style>.cls-1,.cls-2{fill:none;}.cls-3{clip-path:url(#clippath);}.cls-2{stroke:#0072f7;stroke-miterlimit:10;stroke-width:.5px;}</style><clipPath id="clippath"><rect class="cls-1" width="834" height="720"/></clipPath></defs><g class="cls-3"><g><line class="cls-2" x1="1514" y1="440" x2="714" y2="-360"/><line class="cls-2" x1="1354" y1="440" x2="554" y2="-360"/><line class="cls-2" x1="1194" y1="440" x2="794" y2="40"/><line class="cls-2" x1="1034" y1="440" x2="714" y2="120"/><line class="cls-2" x1="874" y1="440" x2="634" y2="200"/><line class="cls-2" x1="929.63" y1="655.63" x2="554" y2="280"/><line class="cls-2" x1="903.15" y1="789.15" x2="474" y2="360"/><line class="cls-2" x1="914" y1="880" x2="434" y2="400"/><line class="cls-2" x1="834" y1="880" x2="394" y2="440"/><line class="cls-2" x1="754" y1="880" x2="354" y2="480"/><line class="cls-2" x1="634" y1="840" x2="314" y2="520"/><line class="cls-2" x1="503.15" y1="789.15" x2="274" y2="560"/><line class="cls-2" x1="514" y1="880" x2="234" y2="600"/><line class="cls-2" x1="434" y1="880" x2="194.44" y2="640.44"/><line class="cls-2" x1="274" y1="800" x2="154" y2="680"/><line class="cls-2" x1="1594" y1="440" x2="794" y2="-360"/><line class="cls-2" x1="1434" y1="440" x2="634" y2="-360"/><line class="cls-2" x1="1114" y1="440" x2="754" y2="80"/><line class="cls-2" x1="954" y1="440" x2="674" y2="160"/><line class="cls-2" x1="936.29" y1="582.29" x2="594" y2="240"/><line class="cls-2" x1="910.35" y1="716.35" x2="514" y2="320"/><line class="cls-2" x1="114" y1="720" x2="1194" y2="-360"/><line class="cls-2" x1="194" y1="800" x2="1354" y2="-360"/><line class="cls-2" x1="354" y1="800" x2="1514" y2="-360"/><line class="cls-2" x1="434" y1="880" x2="1674" y2="-360"/><line class="cls-2" x1="594" y1="880" x2="1834" y2="-360"/><line class="cls-2" x1="114" y1="800" x2="1274" y2="-360"/><line class="cls-2" x1="194" y1="880" x2="1434" y2="-360"/><line class="cls-2" x1="434" y1="800" x2="1594" y2="-360"/><line class="cls-2" x1="604.42" y1="794.21" x2="1754" y2="-360"/></g></g></svg>