<?xml version="1.0" encoding="UTF-8"?><svg id="BG" xmlns="http://www.w3.org/2000/svg" xmlns:xlink="http://www.w3.org/1999/xlink" viewBox="0 0 1440 900"><defs><style>.cls-1,.cls-2{fill:none;}.cls-3{clip-path:url(#clippath);}.cls-4{clip-path:url(#clippath-1);}.cls-2{stroke:#0072f7;stroke-miterlimit:10;stroke-width:.5px;}</style><clipPath id="clippath"><rect class="cls-1" x="0" width="1440" height="900"/></clipPath><clipPath id="clippath-1"><rect class="cls-1" x="80" y="1113.17" width="1280" height="800"/></clipPath></defs><g class="cls-3"><g><line class="cls-2" x1="2290" y1="550" x2="1290" y2="-450"/><line class="cls-2" x1="2090" y1="550" x2="1090" y2="-450"/><line class="cls-2" x1="1890" y1="550" x2="1390" y2="50"/><line class="cls-2" x1="1690" y1="550" x2="1290" y2="150"/><line class="cls-2" x1="1490" y1="550" x2="1190" y2="250"/><line class="cls-2" x1="1559.53" y1="819.53" x2="1090" y2="350"/><line class="cls-2" x1="1526.44" y1="986.44" x2="990" y2="450"/><line class="cls-2" x1="1540" y1="1100" x2="940" y2="500"/><line class="cls-2" x1="1440" y1="1100" x2="890" y2="550"/><line class="cls-2" x1="1340" y1="1100" x2="840" y2="600"/><line class="cls-2" x1="1190" y1="1050" x2="790" y2="650"/><line class="cls-2" x1="1026.44" y1="986.44" x2="740" y2="700"/><line class="cls-2" x1="1040" y1="1100" x2="690" y2="750"/><line class="cls-2" x1="940" y1="1100" x2="640.55" y2="800.55"/><line class="cls-2" x1="740" y1="1000" x2="590" y2="850"/><line class="cls-2" x1="2390" y1="550" x2="1390" y2="-450"/><line class="cls-2" x1="2190" y1="550" x2="1190" y2="-450"/><line class="cls-2" x1="1790" y1="550" x2="1340" y2="100"/><line class="cls-2" x1="1590" y1="550" x2="1240" y2="200"/><line class="cls-2" x1="1567.86" y1="727.86" x2="1140" y2="300"/><line class="cls-2" x1="1535.44" y1="895.44" x2="1040" y2="400"/><line class="cls-2" x1="540" y1="900" x2="1890" y2="-450"/><line class="cls-2" x1="640" y1="1000" x2="2090" y2="-450"/><line class="cls-2" x1="840" y1="1000" x2="2290" y2="-450"/><line class="cls-2" x1="940" y1="1100" x2="2490" y2="-450"/><line class="cls-2" x1="1140" y1="1100" x2="2690" y2="-450"/><line class="cls-2" x1="540" y1="1000" x2="1990" y2="-450"/><line class="cls-2" x1="640" y1="1100" x2="2190" y2="-450"/><line class="cls-2" x1="940" y1="1000" x2="2390" y2="-450"/><line class="cls-2" x1="1153.02" y1="992.76" x2="2590" y2="-450"/></g></g><g class="cls-4"><g><line class="cls-2" x1="2410" y1="1663.17" x2="1410" y2="663.17"/><line class="cls-2" x1="2210" y1="1663.17" x2="1210" y2="663.17"/><line class="cls-2" x1="2010" y1="1663.17" x2="1010" y2="663.17"/><line class="cls-2" x1="2310" y1="1663.17" x2="1310" y2="663.17"/><line class="cls-2" x1="2110" y1="1663.17" x2="1110" y2="663.17"/><line class="cls-2" x1="1060" y1="813.17" x2="1210" y2="663.17"/><line class="cls-2" x1="1260" y1="1013.17" x2="1610" y2="663.17"/><line class="cls-2" x1="460" y1="2013.17" x2="1810" y2="663.17"/><line class="cls-2" x1="560" y1="2113.17" x2="2010" y2="663.17"/><line class="cls-2" x1="760" y1="2113.17" x2="2210" y2="663.17"/><line class="cls-2" x1="860" y1="2213.17" x2="2410" y2="663.17"/><line class="cls-2" x1="1060" y1="2213.17" x2="2610" y2="663.17"/><line class="cls-2" x1="1010" y1="763.17" x2="1110" y2="663.17"/><line class="cls-2" x1="1110" y1="863.17" x2="1310" y2="663.17"/><line class="cls-2" x1="1210" y1="963.17" x2="1510" y2="663.17"/><line class="cls-2" x1="1310" y1="1063.17" x2="1710" y2="663.17"/><line class="cls-2" x1="460" y1="2113.17" x2="1910" y2="663.17"/><line class="cls-2" x1="560" y1="2213.17" x2="2110" y2="663.17"/><line class="cls-2" x1="860" y1="2113.17" x2="2310" y2="663.17"/><line class="cls-2" x1="1073.02" y1="2105.93" x2="2510" y2="663.17"/></g></g></svg>