<?xml version="1.0" encoding="utf-8"?>
<!-- Generator: Adobe Illustrator 27.5.0, SVG Export Plug-In . SVG Version: 6.00 Build 0)  -->
<svg version="1.1" id="BG" xmlns="http://www.w3.org/2000/svg" xmlns:xlink="http://www.w3.org/1999/xlink" x="0px" y="0px"
	 viewBox="0 0 500 1000" style="enable-background:new 0 0 500 1000;" xml:space="preserve">
<style type="text/css">
	.st0{clip-path:url(#SVGID_00000087380294504632625280000000972581256253041800_);}
	.st1{fill:none;stroke:#0072F7;stroke-width:0.5;stroke-miterlimit:10;}
	.st2{clip-path:url(#SVGID_00000103946361704984821500000001604305158475614600_);}
	.st3{clip-path:url(#SVGID_00000078753733970043922540000007340411096215033774_);}
	.st4{clip-path:url(#SVGID_00000104668688051538073740000008341249253744623269_);}
</style>
<g>
	<defs>
		<rect id="SVGID_1_" x="-1955.9" y="-823" width="1024" height="640"/>
	</defs>
	<clipPath id="SVGID_00000079454934956149933380000007903283200670190011_">
		<use xlink:href="#SVGID_1_"  style="overflow:visible;"/>
	</clipPath>
	<g style="clip-path:url(#SVGID_00000079454934956149933380000007903283200670190011_);">
		<line class="st1" x1="-1171.9" y1="57" x2="68.1" y2="-1183"/>
	</g>
</g>
<g>
	<defs>
		<rect id="SVGID_00000111178119165068576010000017648759304257256125_" x="-1860.9" y="140" width="834" height="720"/>
	</defs>
	<clipPath id="SVGID_00000169541976262698925540000014132243383374548905_">
		<use xlink:href="#SVGID_00000111178119165068576010000017648759304257256125_"  style="overflow:visible;"/>
	</clipPath>
	<g style="clip-path:url(#SVGID_00000169541976262698925540000014132243383374548905_);">
		<g>
			<line class="st1" x1="133.1" y1="580" x2="-666.9" y2="-220"/>
			<line class="st1" x1="213.1" y1="580" x2="-586.9" y2="-220"/>
			<line class="st1" x1="53.1" y1="580" x2="-746.9" y2="-220"/>
			<line class="st1" x1="-666.9" y1="580" x2="133.1" y2="-220"/>
			<line class="st1" x1="-746.9" y1="580" x2="53.1" y2="-220"/>
		</g>
	</g>
</g>
<g>
	<defs>
		<rect id="SVGID_00000061448129283291542360000004789847041771249850_" x="-1860.9" y="1150.8" width="834" height="720"/>
	</defs>
	<clipPath id="SVGID_00000117664762094545062390000002517459114519348143_">
		<use xlink:href="#SVGID_00000061448129283291542360000004789847041771249850_"  style="overflow:visible;"/>
	</clipPath>
	<g style="clip-path:url(#SVGID_00000117664762094545062390000002517459114519348143_);">
		<g>
			<line class="st1" x1="133.1" y1="1590.8" x2="-666.9" y2="790.8"/>
			<line class="st1" x1="213.1" y1="1590.8" x2="-586.9" y2="790.8"/>
			<line class="st1" x1="53.1" y1="1590.8" x2="-746.9" y2="790.8"/>
			<line class="st1" x1="-666.9" y1="1590.8" x2="133.1" y2="790.8"/>
			<line class="st1" x1="-746.9" y1="1590.8" x2="53.1" y2="790.8"/>
		</g>
	</g>
</g>
<g>
	<defs>
		<rect id="SVGID_00000133524791728883780830000010779603889417852834_" width="500" height="1000"/>
	</defs>
	<clipPath id="SVGID_00000164508980815440396240000017755795549101293231_">
		<use xlink:href="#SVGID_00000133524791728883780830000010779603889417852834_"  style="overflow:visible;"/>
	</clipPath>
	<g style="clip-path:url(#SVGID_00000164508980815440396240000017755795549101293231_);">
		<g>
			<line class="st1" x1="50" y1="0" x2="-967.4" y2="1017.4"/>
			<line class="st1" x1="100" y1="0" x2="-917.4" y2="1017.4"/>
			<line class="st1" x1="150" y1="0" x2="-867.4" y2="1017.4"/>
			<line class="st1" x1="200" y1="0" x2="-817.4" y2="1017.4"/>
			<line class="st1" x1="250" y1="0" x2="-767.4" y2="1017.4"/>
			<line class="st1" x1="300" y1="0" x2="-717.4" y2="1017.4"/>
			<line class="st1" x1="350" y1="0" x2="-667.4" y2="1017.4"/>
			<line class="st1" x1="400" y1="0" x2="-617.4" y2="1017.4"/>
			<line class="st1" x1="450" y1="0" x2="-567.4" y2="1017.4"/>
			<line class="st1" x1="500" y1="0" x2="-517.4" y2="1017.4"/>
			<line class="st1" x1="550" y1="0" x2="-467.4" y2="1017.4"/>
			<line class="st1" x1="600" y1="0" x2="-417.4" y2="1017.4"/>
			<line class="st1" x1="650" y1="0" x2="-367.4" y2="1017.4"/>
			<line class="st1" x1="700" y1="0" x2="-317.4" y2="1017.4"/>
			<line class="st1" x1="750" y1="0" x2="-267.4" y2="1017.4"/>
			<line class="st1" x1="800" y1="0" x2="-217.4" y2="1017.4"/>
			<line class="st1" x1="850" y1="0" x2="-167.4" y2="1017.4"/>
			<line class="st1" x1="900" y1="0" x2="-117.4" y2="1017.4"/>
			<line class="st1" x1="950" y1="0" x2="-67.4" y2="1017.4"/>
			<line class="st1" x1="1000" y1="0" x2="-17.4" y2="1017.4"/>
			<line class="st1" x1="1050" y1="0" x2="32.6" y2="1017.4"/>
			<line class="st1" x1="1100" y1="0" x2="82.6" y2="1017.4"/>
			<line class="st1" x1="1150" y1="0" x2="132.6" y2="1017.4"/>
			<line class="st1" x1="1200" y1="0" x2="182.6" y2="1017.4"/>
			<line class="st1" x1="1250" y1="0" x2="232.6" y2="1017.4"/>
			<line class="st1" x1="1300" y1="0" x2="282.6" y2="1017.4"/>
			<line class="st1" x1="1350" y1="0" x2="332.6" y2="1017.4"/>
			<line class="st1" x1="1400" y1="0" x2="382.6" y2="1017.4"/>
			<line class="st1" x1="1450" y1="0" x2="432.6" y2="1017.4"/>
			<line class="st1" x1="450" y1="0" x2="1467.4" y2="1017.4"/>
			<line class="st1" x1="400" y1="0" x2="1417.4" y2="1017.4"/>
			<line class="st1" x1="350" y1="0" x2="1367.4" y2="1017.4"/>
			<line class="st1" x1="300" y1="0" x2="1317.4" y2="1017.4"/>
			<line class="st1" x1="250" y1="0" x2="1267.4" y2="1017.4"/>
			<line class="st1" x1="200" y1="0" x2="1217.4" y2="1017.4"/>
			<line class="st1" x1="150" y1="0" x2="1167.4" y2="1017.4"/>
			<line class="st1" x1="100" y1="0" x2="1117.4" y2="1017.4"/>
			<line class="st1" x1="50" y1="0" x2="1067.4" y2="1017.4"/>
			<line class="st1" x1="0" y1="0" x2="1017.4" y2="1017.4"/>
			<line class="st1" x1="-50" y1="0" x2="967.4" y2="1017.4"/>
			<line class="st1" x1="-100" y1="0" x2="917.4" y2="1017.4"/>
			<line class="st1" x1="-150" y1="0" x2="867.4" y2="1017.4"/>
			<line class="st1" x1="-200" y1="0" x2="817.4" y2="1017.4"/>
			<line class="st1" x1="-250" y1="0" x2="767.4" y2="1017.4"/>
			<line class="st1" x1="-300" y1="0" x2="717.4" y2="1017.4"/>
			<line class="st1" x1="-350" y1="0" x2="667.4" y2="1017.4"/>
			<line class="st1" x1="-400" y1="0" x2="617.4" y2="1017.4"/>
			<line class="st1" x1="-450" y1="0" x2="567.4" y2="1017.4"/>
			<line class="st1" x1="-500" y1="0" x2="517.4" y2="1017.4"/>
			<line class="st1" x1="-550" y1="0" x2="467.4" y2="1017.4"/>
			<line class="st1" x1="-600" y1="0" x2="417.4" y2="1017.4"/>
			<line class="st1" x1="-650" y1="0" x2="367.4" y2="1017.4"/>
			<line class="st1" x1="-700" y1="0" x2="317.4" y2="1017.4"/>
			<line class="st1" x1="-750" y1="0" x2="267.4" y2="1017.4"/>
			<line class="st1" x1="-800" y1="0" x2="217.4" y2="1017.4"/>
			<line class="st1" x1="-850" y1="0" x2="167.4" y2="1017.4"/>
			<line class="st1" x1="-900" y1="0" x2="117.4" y2="1017.4"/>
			<line class="st1" x1="-950" y1="0" x2="67.4" y2="1017.4"/>
		</g>
	</g>
</g>
</svg>
