<?xml version="1.0" encoding="utf-8"?>
<!-- Generator: Adobe Illustrator 27.5.0, SVG Export Plug-In . SVG Version: 6.00 Build 0)  -->
<svg version="1.1" id="BG" xmlns="http://www.w3.org/2000/svg" xmlns:xlink="http://www.w3.org/1999/xlink" x="0px" y="0px"
	 viewBox="0 0 1190 900" style="enable-background:new 0 0 1190 900;" xml:space="preserve">
<style type="text/css">
	.st0{clip-path:url(#SVGID_00000034060677489516088300000010379918812906424473_);}
	.st1{fill:none;stroke:#0072F7;stroke-width:0.5;stroke-miterlimit:10;}
	.st2{clip-path:url(#SVGID_00000137832956229289943840000008035197689629873817_);}
	.st3{fill:#0072F7;}
	.st4{fill:#0F0F0F;}
	.st5{clip-path:url(#SVGID_00000033335104956864092230000010070361145846407600_);}
</style>
<g>
	<defs>
		<rect id="SVGID_1_" x="-1811" width="1440" height="900"/>
	</defs>
	<clipPath id="SVGID_00000041264992598978334840000010514681248319486648_">
		<use xlink:href="#SVGID_1_"  style="overflow:visible;"/>
	</clipPath>
	<g style="clip-path:url(#SVGID_00000041264992598978334840000010514681248319486648_);">
		<g>
			<line class="st1" x1="1079" y1="550" x2="79" y2="-450"/>
			<line class="st1" x1="879" y1="550" x2="-121" y2="-450"/>
			<line class="st1" x1="679" y1="550" x2="-321" y2="-450"/>
			<line class="st1" x1="479" y1="550" x2="-521" y2="-450"/>
			<line class="st1" x1="279" y1="550" x2="-721" y2="-450"/>
			<line class="st1" x1="79" y1="550" x2="-421" y2="50"/>
			<line class="st1" x1="1179" y1="550" x2="179" y2="-450"/>
			<line class="st1" x1="979" y1="550" x2="-21" y2="-450"/>
			<line class="st1" x1="779" y1="550" x2="-221" y2="-450"/>
			<line class="st1" x1="579" y1="550" x2="-421" y2="-450"/>
			<line class="st1" x1="379" y1="550" x2="-621" y2="-450"/>
			<line class="st1" x1="-1271" y1="900" x2="79" y2="-450"/>
			<line class="st1" x1="-1171" y1="1000" x2="279" y2="-450"/>
			<line class="st1" x1="-971" y1="1000" x2="479" y2="-450"/>
			<line class="st1" x1="-871" y1="1100" x2="679" y2="-450"/>
			<line class="st1" x1="-671" y1="1100" x2="879" y2="-450"/>
			<line class="st1" x1="79" y1="550" x2="1079" y2="-450"/>
			<line class="st1" x1="-1271" y1="1000" x2="179" y2="-450"/>
			<line class="st1" x1="-1171" y1="1100" x2="379" y2="-450"/>
			<line class="st1" x1="-871" y1="1000" x2="579" y2="-450"/>
			<line class="st1" x1="-658" y1="992.8" x2="779" y2="-450"/>
			<line class="st1" x1="-21" y1="550" x2="979" y2="-450"/>
		</g>
	</g>
</g>
<g>
	<defs>
		<rect id="SVGID_00000096018098269786110210000006321290508013593752_" width="1440" height="900"/>
	</defs>
	<clipPath id="SVGID_00000000200792797361195170000010851226572932486588_">
		<use xlink:href="#SVGID_00000096018098269786110210000006321290508013593752_"  style="overflow:visible;"/>
	</clipPath>
	<g style="clip-path:url(#SVGID_00000000200792797361195170000010851226572932486588_);">
		<g>
			<line class="st1" x1="2440" y1="1000" x2="1440" y2="0"/>
			<line class="st1" x1="2240" y1="1000" x2="1240" y2="0"/>
			<line class="st1" x1="2040" y1="1000" x2="1040" y2="0"/>
			<line class="st1" x1="1840" y1="1000" x2="840" y2="0"/>
			<line class="st1" x1="1640" y1="1000" x2="640" y2="0"/>
			<line class="st1" x1="1440" y1="1000" x2="940" y2="500"/>
			<line class="st1" x1="1240" y1="1000" x2="840" y2="600"/>
			<line class="st1" x1="1040" y1="1000" x2="740" y2="700"/>
			<line class="st1" x1="840" y1="1000" x2="640" y2="800"/>
			<line class="st1" x1="640" y1="1000" x2="540" y2="900"/>
			<line class="st1" x1="2340" y1="1000" x2="1340" y2="0"/>
			<line class="st1" x1="2140" y1="1000" x2="1140" y2="0"/>
			<line class="st1" x1="1940" y1="1000" x2="940" y2="0"/>
			<line class="st1" x1="1740" y1="1000" x2="740" y2="0"/>
			<line class="st1" x1="1540" y1="1000" x2="540" y2="0"/>
			<line class="st1" x1="1340" y1="1000" x2="890" y2="550"/>
			<line class="st1" x1="1140" y1="1000" x2="790" y2="650"/>
			<line class="st1" x1="940" y1="1000" x2="690" y2="750"/>
			<line class="st1" x1="740" y1="1000" x2="590" y2="850"/>
			<line class="st1" x1="690" y1="150" x2="840" y2="0"/>
			<line class="st1" x1="790" y1="250" x2="1040" y2="0"/>
			<line class="st1" x1="890" y1="350" x2="1240" y2="0"/>
			<line class="st1" x1="440" y1="1000" x2="1440" y2="0"/>
			<line class="st1" x1="640" y1="1000" x2="1640" y2="0"/>
			<line class="st1" x1="840" y1="1000" x2="1840" y2="0"/>
			<line class="st1" x1="1040" y1="1000" x2="2040" y2="0"/>
			<line class="st1" x1="1240" y1="1000" x2="2240" y2="0"/>
			<line class="st1" x1="1440" y1="1000" x2="2440" y2="0"/>
			<line class="st1" x1="640" y1="100" x2="740" y2="0"/>
			<line class="st1" x1="590" y1="50" x2="640" y2="0"/>
			<line class="st1" x1="740" y1="200" x2="940" y2="0"/>
			<line class="st1" x1="840" y1="300" x2="1140" y2="0"/>
			<line class="st1" x1="940" y1="400" x2="1340" y2="0"/>
			<line class="st1" x1="540" y1="1000" x2="1540" y2="0"/>
			<line class="st1" x1="740" y1="1000" x2="1740" y2="0"/>
			<line class="st1" x1="940" y1="1000" x2="1940" y2="0"/>
			<line class="st1" x1="1140" y1="1000" x2="2140" y2="0"/>
			<line class="st1" x1="1340" y1="1000" x2="2340" y2="0"/>
		</g>
	</g>
</g>
<g>
	<path class="st3" d="M890,550l100-100l100,100L990,650L890,550z"/>
	<polygon class="st4" points="1090,550 1190,650 1290,550 1390,650 1440,600 1440,500 1390,450 1440,400 1440,300 1390,250 
		1290,350 1190,250 1090,350 1190,450 	"/>
</g>
<g>
	<defs>
		<rect id="SVGID_00000022534788227387030310000004290466544754746045_" x="-1731" y="1113.2" width="1280" height="800"/>
	</defs>
	<clipPath id="SVGID_00000054944331323579614160000009822411156440870823_">
		<use xlink:href="#SVGID_00000022534788227387030310000004290466544754746045_"  style="overflow:visible;"/>
	</clipPath>
	<g style="clip-path:url(#SVGID_00000054944331323579614160000009822411156440870823_);">
		<g>
			<line class="st1" x1="999" y1="1663.2" x2="-1" y2="663.2"/>
			<line class="st1" x1="799" y1="1663.2" x2="-201" y2="663.2"/>
			<line class="st1" x1="599" y1="1663.2" x2="-401" y2="663.2"/>
			<line class="st1" x1="399" y1="1663.2" x2="-601" y2="663.2"/>
			<line class="st1" x1="199" y1="1663.2" x2="-801" y2="663.2"/>
			<line class="st1" x1="1099" y1="1663.2" x2="99" y2="663.2"/>
			<line class="st1" x1="899" y1="1663.2" x2="-101" y2="663.2"/>
			<line class="st1" x1="699" y1="1663.2" x2="-301" y2="663.2"/>
			<line class="st1" x1="499" y1="1663.2" x2="-501" y2="663.2"/>
			<line class="st1" x1="299" y1="1663.2" x2="-701" y2="663.2"/>
			<line class="st1" x1="-1251" y1="2113.2" x2="199" y2="663.2"/>
			<line class="st1" x1="-1051" y1="2113.2" x2="399" y2="663.2"/>
			<line class="st1" x1="-951" y1="2213.2" x2="599" y2="663.2"/>
			<line class="st1" x1="-751" y1="2213.2" x2="799" y2="663.2"/>
			<line class="st1" x1="-1" y1="1663.2" x2="999" y2="663.2"/>
			<line class="st1" x1="-1351" y1="2113.2" x2="99" y2="663.2"/>
			<line class="st1" x1="-1251" y1="2213.2" x2="299" y2="663.2"/>
			<line class="st1" x1="-951" y1="2113.2" x2="499" y2="663.2"/>
			<line class="st1" x1="-738" y1="2105.9" x2="699" y2="663.2"/>
			<line class="st1" x1="-101" y1="1663.2" x2="899" y2="663.2"/>
		</g>
	</g>
</g>
</svg>
