<?xml version="1.0" encoding="utf-8"?>
<!-- Generator: Adobe Illustrator 27.5.0, SVG Export Plug-In . SVG Version: 6.00 Build 0)  -->
<svg version="1.1" id="BG" xmlns="http://www.w3.org/2000/svg" xmlns:xlink="http://www.w3.org/1999/xlink" x="0px" y="0px"
	 viewBox="0 0 1090 900" style="enable-background:new 0 0 1090 900;" xml:space="preserve">
<style type="text/css">
	.st0{clip-path:url(#SVGID_00000145745635071367749180000002286153447707923081_);}
	.st1{fill:none;stroke:#0072F7;stroke-width:0.5;stroke-miterlimit:10;}
	.st2{fill:#0072F7;}
	.st3{fill:#0F0F0F;}
	.st4{clip-path:url(#SVGID_00000136400563248452928740000006333593920257103519_);}
</style>
<g>
	<defs>
		<rect id="SVGID_1_" width="1440" height="900"/>
	</defs>
	<clipPath id="SVGID_00000086649475974526421990000014851439021724854460_">
		<use xlink:href="#SVGID_1_"  style="overflow:visible;"/>
	</clipPath>
	<g style="clip-path:url(#SVGID_00000086649475974526421990000014851439021724854460_);">
		<g>
			<line class="st1" x1="2290" y1="550" x2="1290" y2="-450"/>
			<line class="st1" x1="2090" y1="550" x2="1090" y2="-450"/>
			<line class="st1" x1="1890" y1="550" x2="1390" y2="50"/>
			<line class="st1" x1="1690" y1="550" x2="1290" y2="150"/>
			<line class="st1" x1="1490" y1="550" x2="1190" y2="250"/>
			<line class="st1" x1="1559.5" y1="819.5" x2="1090" y2="350"/>
			<line class="st1" x1="1526.4" y1="986.4" x2="990" y2="450"/>
			<line class="st1" x1="1540" y1="1100" x2="940" y2="500"/>
			<line class="st1" x1="1440" y1="1100" x2="890" y2="550"/>
			<line class="st1" x1="1340" y1="1100" x2="840" y2="600"/>
			<line class="st1" x1="1190" y1="1050" x2="790" y2="650"/>
			<line class="st1" x1="1026.4" y1="986.4" x2="740" y2="700"/>
			<line class="st1" x1="1040" y1="1100" x2="690" y2="750"/>
			<line class="st1" x1="940" y1="1100" x2="640.5" y2="800.5"/>
			<line class="st1" x1="740" y1="1000" x2="590" y2="850"/>
			<line class="st1" x1="2390" y1="550" x2="1390" y2="-450"/>
			<line class="st1" x1="2190" y1="550" x2="1190" y2="-450"/>
			<line class="st1" x1="1790" y1="550" x2="1340" y2="100"/>
			<line class="st1" x1="1590" y1="550" x2="1240" y2="200"/>
			<line class="st1" x1="1567.9" y1="727.9" x2="1140" y2="300"/>
			<line class="st1" x1="1535.4" y1="895.4" x2="1040" y2="400"/>
			<line class="st1" x1="540" y1="900" x2="1890" y2="-450"/>
			<line class="st1" x1="640" y1="1000" x2="2090" y2="-450"/>
			<line class="st1" x1="840" y1="1000" x2="2290" y2="-450"/>
			<line class="st1" x1="940" y1="1100" x2="2490" y2="-450"/>
			<line class="st1" x1="1140" y1="1100" x2="2690" y2="-450"/>
			<line class="st1" x1="540" y1="1000" x2="1990" y2="-450"/>
			<line class="st1" x1="640" y1="1100" x2="2190" y2="-450"/>
			<line class="st1" x1="940" y1="1000" x2="2390" y2="-450"/>
			<line class="st1" x1="1153" y1="992.8" x2="2590" y2="-450"/>
		</g>
	</g>
</g>
<g>
	<path class="st2" d="M1190,450l-100,100L990,450l100-100L1190,450z"/>
	<path class="st3" d="M1190,650H990l100-100L1190,650z"/>
	<polygon class="st3" points="1390,250 1190,450 1390,650 1440,600 1440,300 	"/>
</g>
<g>
	<defs>
		<rect id="SVGID_00000002381862120084380550000013299433155688551044_" x="80" y="1113.2" width="1280" height="800"/>
	</defs>
	<clipPath id="SVGID_00000135663007817416703690000004708253923927372435_">
		<use xlink:href="#SVGID_00000002381862120084380550000013299433155688551044_"  style="overflow:visible;"/>
	</clipPath>
	<g style="clip-path:url(#SVGID_00000135663007817416703690000004708253923927372435_);">
		<g>
			<line class="st1" x1="2410" y1="1663.2" x2="1410" y2="663.2"/>
			<line class="st1" x1="2210" y1="1663.2" x2="1210" y2="663.2"/>
			<line class="st1" x1="2010" y1="1663.2" x2="1010" y2="663.2"/>
			<line class="st1" x1="2310" y1="1663.2" x2="1310" y2="663.2"/>
			<line class="st1" x1="2110" y1="1663.2" x2="1110" y2="663.2"/>
			<line class="st1" x1="1060" y1="813.2" x2="1210" y2="663.2"/>
			<line class="st1" x1="1260" y1="1013.2" x2="1610" y2="663.2"/>
			<line class="st1" x1="460" y1="2013.2" x2="1810" y2="663.2"/>
			<line class="st1" x1="560" y1="2113.2" x2="2010" y2="663.2"/>
			<line class="st1" x1="760" y1="2113.2" x2="2210" y2="663.2"/>
			<line class="st1" x1="860" y1="2213.2" x2="2410" y2="663.2"/>
			<line class="st1" x1="1060" y1="2213.2" x2="2610" y2="663.2"/>
			<line class="st1" x1="1010" y1="763.2" x2="1110" y2="663.2"/>
			<line class="st1" x1="1110" y1="863.2" x2="1310" y2="663.2"/>
			<line class="st1" x1="1210" y1="963.2" x2="1510" y2="663.2"/>
			<line class="st1" x1="1310" y1="1063.2" x2="1710" y2="663.2"/>
			<line class="st1" x1="460" y1="2113.2" x2="1910" y2="663.2"/>
			<line class="st1" x1="560" y1="2213.2" x2="2110" y2="663.2"/>
			<line class="st1" x1="860" y1="2113.2" x2="2310" y2="663.2"/>
			<line class="st1" x1="1073" y1="2105.9" x2="2510" y2="663.2"/>
		</g>
	</g>
</g>
</svg>
