<?xml version="1.0" encoding="UTF-8"?><svg id="BG" xmlns="http://www.w3.org/2000/svg" xmlns:xlink="http://www.w3.org/1999/xlink" viewBox="0 0 1024 640"><defs><style>.cls-1,.cls-2{fill:none;}.cls-3{clip-path:url(#clippath);}.cls-4{clip-path:url(#clippath-1);}.cls-5{clip-path:url(#clippath-2);}.cls-2{stroke:#0072f7;stroke-miterlimit:10;stroke-width:.5px;}</style><clipPath id="clippath"><rect class="cls-1" x="-1810.99" width="1024" height="640"/></clipPath><clipPath id="clippath-1"><rect class="cls-1" width="1024" height="640"/></clipPath><clipPath id="clippath-2"><rect class="cls-1" x="-1715.99" y="963.04" width="834" height="720"/></clipPath></defs><g class="cls-3"><g><line class="cls-2" x1="373.01" y1="440" x2="-426.99" y2="-360"/><line class="cls-2" x1="213.01" y1="440" x2="-586.99" y2="-360"/><line class="cls-2" x1="53.01" y1="440" x2="-746.99" y2="-360"/><line class="cls-2" x1="453.01" y1="440" x2="-346.99" y2="-360"/><line class="cls-2" x1="293.01" y1="440" x2="-506.99" y2="-360"/><line class="cls-2" x1="133.01" y1="440" x2="-666.99" y2="-360"/><line class="cls-2" x1="-1186.99" y1="880" x2="53.01" y2="-360"/><line class="cls-2" x1="-1026.99" y1="880" x2="213.01" y2="-360"/><line class="cls-2" x1="-426.99" y1="440" x2="373.01" y2="-360"/><line class="cls-2" x1="-1016.58" y1="794.21" x2="133.01" y2="-360"/><line class="cls-2" x1="-506.99" y1="440" x2="293.01" y2="-360"/></g></g><g class="cls-4"><g><line class="cls-2" x1="1704" y1="760" x2="904" y2="-40"/><line class="cls-2" x1="1544" y1="760" x2="744" y2="-40"/><line class="cls-2" x1="1384" y1="760" x2="584" y2="-40"/><line class="cls-2" x1="1224" y1="760" x2="424" y2="-40"/><line class="cls-2" x1="1064" y1="760" x2="664" y2="360"/><line class="cls-2" x1="904" y1="760" x2="584" y2="440"/><line class="cls-2" x1="744" y1="760" x2="504" y2="520"/><line class="cls-2" x1="584" y1="760" x2="424" y2="600"/><line class="cls-2" x1="1784" y1="760" x2="984" y2="-40"/><line class="cls-2" x1="1624" y1="760" x2="824" y2="-40"/><line class="cls-2" x1="1464" y1="760" x2="664" y2="-40"/><line class="cls-2" x1="1304" y1="760" x2="504" y2="-40"/><line class="cls-2" x1="1144" y1="760" x2="344" y2="-40"/><line class="cls-2" x1="984" y1="760" x2="624" y2="400"/><line class="cls-2" x1="824" y1="760" x2="544" y2="480"/><line class="cls-2" x1="664" y1="760" x2="464" y2="560"/><line class="cls-2" x1="504" y1="760" x2="384" y2="640"/><line class="cls-2" x1="464" y1="80" x2="584" y2="-40"/><line class="cls-2" x1="544" y1="160" x2="744" y2="-40"/><line class="cls-2" x1="624" y1="240" x2="904" y2="-40"/><line class="cls-2" x1="264" y1="760" x2="1064" y2="-40"/><line class="cls-2" x1="424" y1="760" x2="1224" y2="-40"/><line class="cls-2" x1="584" y1="760" x2="1384" y2="-40"/><line class="cls-2" x1="744" y1="760" x2="1544" y2="-40"/><line class="cls-2" x1="904" y1="760" x2="1704" y2="-40"/><line class="cls-2" x1="424" y1="40" x2="504" y2="-40"/><line class="cls-2" x1="384" y1="0" x2="424" y2="-40"/><line class="cls-2" x1="504" y1="120" x2="664" y2="-40"/><line class="cls-2" x1="584" y1="200" x2="824" y2="-40"/><line class="cls-2" x1="664" y1="280" x2="984" y2="-40"/><line class="cls-2" x1="344" y1="760" x2="1144" y2="-40"/><line class="cls-2" x1="504" y1="760" x2="1304" y2="-40"/><line class="cls-2" x1="664" y1="760" x2="1464" y2="-40"/><line class="cls-2" x1="824" y1="760" x2="1624" y2="-40"/><line class="cls-2" x1="984" y1="760" x2="1784" y2="-40"/></g></g><g class="cls-5"><g><line class="cls-2" x1="278.01" y1="1403.04" x2="-521.99" y2="603.04"/><line class="cls-2" x1="118.01" y1="1403.04" x2="-681.99" y2="603.04"/><line class="cls-2" x1="358.01" y1="1403.04" x2="-441.99" y2="603.04"/><line class="cls-2" x1="198.01" y1="1403.04" x2="-601.99" y2="603.04"/><line class="cls-2" x1="38.01" y1="1403.04" x2="-761.99" y2="603.04"/><line class="cls-2" x1="-1121.99" y1="1843.04" x2="118.01" y2="603.04"/><line class="cls-2" x1="-521.99" y1="1403.04" x2="278.01" y2="603.04"/><line class="cls-2" x1="-1111.58" y1="1757.25" x2="38.01" y2="603.04"/><line class="cls-2" x1="-601.99" y1="1403.04" x2="198.01" y2="603.04"/></g></g></svg>