<?xml version="1.0" encoding="UTF-8"?><svg id="BG" xmlns="http://www.w3.org/2000/svg" xmlns:xlink="http://www.w3.org/1999/xlink" viewBox="0 0 1440 900"><defs><style>.cls-1,.cls-2{fill:none;}.cls-3{clip-path:url(#clippath);}.cls-4{clip-path:url(#clippath-1);}.cls-5{clip-path:url(#clippath-2);}.cls-2{stroke:#0072f7;stroke-miterlimit:10;stroke-width:.5px;}</style><clipPath id="clippath"><rect class="cls-1" x="-1810.99" width="1440" height="900"/></clipPath><clipPath id="clippath-1"><rect class="cls-1" x="0" y="0" width="1440" height="900"/></clipPath><clipPath id="clippath-2"><rect class="cls-1" x="-1730.99" y="1113.17" width="1280" height="800"/></clipPath></defs><g class="cls-3"><g><line class="cls-2" x1="1079.01" y1="550" x2="79.01" y2="-450"/><line class="cls-2" x1="879.01" y1="550" x2="-120.99" y2="-450"/><line class="cls-2" x1="679.01" y1="550" x2="-320.99" y2="-450"/><line class="cls-2" x1="479.01" y1="550" x2="-520.99" y2="-450"/><line class="cls-2" x1="279.01" y1="550" x2="-720.99" y2="-450"/><line class="cls-2" x1="79.01" y1="550" x2="-420.99" y2="50"/><line class="cls-2" x1="1179.01" y1="550" x2="179.01" y2="-450"/><line class="cls-2" x1="979.01" y1="550" x2="-20.99" y2="-450"/><line class="cls-2" x1="779.01" y1="550" x2="-220.99" y2="-450"/><line class="cls-2" x1="579.01" y1="550" x2="-420.99" y2="-450"/><line class="cls-2" x1="379.01" y1="550" x2="-620.99" y2="-450"/><line class="cls-2" x1="-1270.99" y1="900" x2="79.01" y2="-450"/><line class="cls-2" x1="-1170.99" y1="1000" x2="279.01" y2="-450"/><line class="cls-2" x1="-970.99" y1="1000" x2="479.01" y2="-450"/><line class="cls-2" x1="-870.99" y1="1100" x2="679.01" y2="-450"/><line class="cls-2" x1="-670.99" y1="1100" x2="879.01" y2="-450"/><line class="cls-2" x1="79.01" y1="550" x2="1079.01" y2="-450"/><line class="cls-2" x1="-1270.99" y1="1000" x2="179.01" y2="-450"/><line class="cls-2" x1="-1170.99" y1="1100" x2="379.01" y2="-450"/><line class="cls-2" x1="-870.99" y1="1000" x2="579.01" y2="-450"/><line class="cls-2" x1="-657.97" y1="992.76" x2="779.01" y2="-450"/><line class="cls-2" x1="-20.99" y1="550" x2="979.01" y2="-450"/></g></g><g class="cls-4"><g><line class="cls-2" x1="2440" y1="1000" x2="1440" y2="0"/><line class="cls-2" x1="2240" y1="1000" x2="1240" y2="0"/><line class="cls-2" x1="2040" y1="1000" x2="1040" y2="0"/><line class="cls-2" x1="1840" y1="1000" x2="840" y2="0"/><line class="cls-2" x1="1640" y1="1000" x2="640" y2="0"/><line class="cls-2" x1="1440" y1="1000" x2="940" y2="500"/><line class="cls-2" x1="1240" y1="1000" x2="840" y2="600"/><line class="cls-2" x1="1040" y1="1000" x2="740" y2="700"/><line class="cls-2" x1="840" y1="1000" x2="640" y2="800"/><line class="cls-2" x1="640" y1="1000" x2="540" y2="900"/><line class="cls-2" x1="2340" y1="1000" x2="1340" y2="0"/><line class="cls-2" x1="2140" y1="1000" x2="1140" y2="0"/><line class="cls-2" x1="1940" y1="1000" x2="940" y2="0"/><line class="cls-2" x1="1740" y1="1000" x2="740" y2="0"/><line class="cls-2" x1="1540" y1="1000" x2="540" y2="0"/><line class="cls-2" x1="1340" y1="1000" x2="890" y2="550"/><line class="cls-2" x1="1140" y1="1000" x2="790" y2="650"/><line class="cls-2" x1="940" y1="1000" x2="690" y2="750"/><line class="cls-2" x1="740" y1="1000" x2="590" y2="850"/><line class="cls-2" x1="690" y1="150" x2="840" y2="0"/><line class="cls-2" x1="790" y1="250" x2="1040" y2="0"/><line class="cls-2" x1="890" y1="350" x2="1240" y2="0"/><line class="cls-2" x1="440" y1="1000" x2="1440" y2="0"/><line class="cls-2" x1="640" y1="1000" x2="1640" y2="0"/><line class="cls-2" x1="840" y1="1000" x2="1840" y2="0"/><line class="cls-2" x1="1040" y1="1000" x2="2040" y2="0"/><line class="cls-2" x1="1240" y1="1000" x2="2240" y2="0"/><line class="cls-2" x1="1440" y1="1000" x2="2440" y2="0"/><line class="cls-2" x1="640" y1="100" x2="740" y2="0"/><line class="cls-2" x1="590" y1="50" x2="640" y2="0"/><line class="cls-2" x1="740" y1="200" x2="940" y2="0"/><line class="cls-2" x1="840" y1="300" x2="1140" y2="0"/><line class="cls-2" x1="940" y1="400" x2="1340" y2="0"/><line class="cls-2" x1="540" y1="1000" x2="1540" y2="0"/><line class="cls-2" x1="740" y1="1000" x2="1740" y2="0"/><line class="cls-2" x1="940" y1="1000" x2="1940" y2="0"/><line class="cls-2" x1="1140" y1="1000" x2="2140" y2="0"/><line class="cls-2" x1="1340" y1="1000" x2="2340" y2="0"/></g></g><g class="cls-5"><g><line class="cls-2" x1="999.01" y1="1663.17" x2="-.99" y2="663.17"/><line class="cls-2" x1="799.01" y1="1663.17" x2="-200.99" y2="663.17"/><line class="cls-2" x1="599.01" y1="1663.17" x2="-400.99" y2="663.17"/><line class="cls-2" x1="399.01" y1="1663.17" x2="-600.99" y2="663.17"/><line class="cls-2" x1="199.01" y1="1663.17" x2="-800.99" y2="663.17"/><line class="cls-2" x1="1099.01" y1="1663.17" x2="99.01" y2="663.17"/><line class="cls-2" x1="899.01" y1="1663.17" x2="-100.99" y2="663.17"/><line class="cls-2" x1="699.01" y1="1663.17" x2="-300.99" y2="663.17"/><line class="cls-2" x1="499.01" y1="1663.17" x2="-500.99" y2="663.17"/><line class="cls-2" x1="299.01" y1="1663.17" x2="-700.99" y2="663.17"/><line class="cls-2" x1="-1250.99" y1="2113.17" x2="199.01" y2="663.17"/><line class="cls-2" x1="-1050.99" y1="2113.17" x2="399.01" y2="663.17"/><line class="cls-2" x1="-950.99" y1="2213.17" x2="599.01" y2="663.17"/><line class="cls-2" x1="-750.99" y1="2213.17" x2="799.01" y2="663.17"/><line class="cls-2" x1="-.99" y1="1663.17" x2="999.01" y2="663.17"/><line class="cls-2" x1="-1350.99" y1="2113.17" x2="99.01" y2="663.17"/><line class="cls-2" x1="-1250.99" y1="2213.17" x2="299.01" y2="663.17"/><line class="cls-2" x1="-950.99" y1="2113.17" x2="499.01" y2="663.17"/><line class="cls-2" x1="-737.97" y1="2105.93" x2="699.01" y2="663.17"/><line class="cls-2" x1="-100.99" y1="1663.17" x2="899.01" y2="663.17"/></g></g></svg>