<?xml version="1.0" encoding="UTF-8"?><svg id="BG" xmlns="http://www.w3.org/2000/svg" xmlns:xlink="http://www.w3.org/1999/xlink" viewBox="0 0 1280 800"><defs><style>.cls-1,.cls-2{fill:none;}.cls-3{clip-path:url(#clippath);}.cls-4{clip-path:url(#clippath-1);}.cls-2{stroke:#0072f7;stroke-miterlimit:10;stroke-width:.5px;}</style><clipPath id="clippath"><rect class="cls-1" x="128" y="1147.67" width="1024" height="640"/></clipPath><clipPath id="clippath-1"><rect class="cls-1" x="0" y="0" width="1280" height="800"/></clipPath></defs><g class="cls-3"><g><line class="cls-2" x1="1992" y1="1587.67" x2="1192" y2="787.67"/><line class="cls-2" x1="1832" y1="1587.67" x2="1032" y2="787.67"/><line class="cls-2" x1="1672" y1="1587.67" x2="872" y2="787.67"/><line class="cls-2" x1="2072" y1="1587.67" x2="1272" y2="787.67"/><line class="cls-2" x1="1912" y1="1587.67" x2="1112" y2="787.67"/><line class="cls-2" x1="1752" y1="1587.67" x2="952" y2="787.67"/><line class="cls-2" x1="912" y1="907.67" x2="1032" y2="787.67"/><line class="cls-2" x1="1072" y1="1067.67" x2="1352" y2="787.67"/><line class="cls-2" x1="432" y1="1867.67" x2="1512" y2="787.67"/><line class="cls-2" x1="512" y1="1947.67" x2="1672" y2="787.67"/><line class="cls-2" x1="672" y1="1947.67" x2="1832" y2="787.67"/><line class="cls-2" x1="752" y1="2027.67" x2="1992" y2="787.67"/><line class="cls-2" x1="912" y1="2027.67" x2="2152" y2="787.67"/><line class="cls-2" x1="872" y1="867.67" x2="952" y2="787.67"/><line class="cls-2" x1="952" y1="947.67" x2="1112" y2="787.67"/><line class="cls-2" x1="1032" y1="1027.67" x2="1272" y2="787.67"/><line class="cls-2" x1="1112" y1="1107.67" x2="1432" y2="787.67"/><line class="cls-2" x1="432" y1="1947.67" x2="1592" y2="787.67"/><line class="cls-2" x1="512" y1="2027.67" x2="1752" y2="787.67"/><line class="cls-2" x1="752" y1="1947.67" x2="1912" y2="787.67"/><line class="cls-2" x1="922.42" y1="1941.89" x2="2072" y2="787.67"/></g></g><g class="cls-4"><g><line class="cls-2" x1="2130" y1="550" x2="1130" y2="-450"/><line class="cls-2" x1="1930" y1="550" x2="930" y2="-450"/><line class="cls-2" x1="1730" y1="550" x2="1230" y2="50"/><line class="cls-2" x1="1530" y1="550" x2="1130" y2="150"/><line class="cls-2" x1="1330" y1="550" x2="1030" y2="250"/><line class="cls-2" x1="1399.53" y1="819.53" x2="930" y2="350"/><line class="cls-2" x1="1366.44" y1="986.44" x2="830" y2="450"/><line class="cls-2" x1="1380" y1="1100" x2="780" y2="500"/><line class="cls-2" x1="1280" y1="1100" x2="730" y2="550"/><line class="cls-2" x1="1180" y1="1100" x2="680" y2="600"/><line class="cls-2" x1="1030" y1="1050" x2="630" y2="650"/><line class="cls-2" x1="866.44" y1="986.44" x2="580" y2="700"/><line class="cls-2" x1="880" y1="1100" x2="530" y2="750"/><line class="cls-2" x1="2230" y1="550" x2="1230" y2="-450"/><line class="cls-2" x1="2030" y1="550" x2="1030" y2="-450"/><line class="cls-2" x1="1630" y1="550" x2="1180" y2="100"/><line class="cls-2" x1="1430" y1="550" x2="1080" y2="200"/><line class="cls-2" x1="1407.86" y1="727.86" x2="980" y2="300"/><line class="cls-2" x1="1375.44" y1="895.44" x2="880" y2="400"/><line class="cls-2" x1="380" y1="900" x2="1730" y2="-450"/><line class="cls-2" x1="480" y1="1000" x2="1930" y2="-450"/><line class="cls-2" x1="680" y1="1000" x2="2130" y2="-450"/><line class="cls-2" x1="780" y1="1100" x2="2330" y2="-450"/><line class="cls-2" x1="980" y1="1100" x2="2530" y2="-450"/><line class="cls-2" x1="380" y1="1000" x2="1830" y2="-450"/><line class="cls-2" x1="480" y1="1100" x2="2030" y2="-450"/><line class="cls-2" x1="780" y1="1000" x2="2230" y2="-450"/><line class="cls-2" x1="993.02" y1="992.76" x2="2430" y2="-450"/></g></g></svg>