<?xml version="1.0" encoding="UTF-8"?><svg id="BG" xmlns="http://www.w3.org/2000/svg" xmlns:xlink="http://www.w3.org/1999/xlink" viewBox="0 0 1280 800"><defs><style>.cls-1,.cls-2{fill:none;}.cls-3{clip-path:url(#clippath);}.cls-4{clip-path:url(#clippath-1);}.cls-5{clip-path:url(#clippath-2);}.cls-2{stroke:#0072f7;stroke-miterlimit:10;stroke-width:.5px;}</style><clipPath id="clippath"><rect class="cls-1" x="-1682.99" y="1147.67" width="1024" height="640"/></clipPath><clipPath id="clippath-1"><rect class="cls-1" x="-1810.99" y="0" width="1280" height="800"/></clipPath><clipPath id="clippath-2"><rect class="cls-1" width="1280" height="800"/></clipPath></defs><g class="cls-3"><g><line class="cls-2" x1="501.01" y1="1587.67" x2="-298.99" y2="787.67"/><line class="cls-2" x1="341.01" y1="1587.67" x2="-458.99" y2="787.67"/><line class="cls-2" x1="181.01" y1="1587.67" x2="-618.99" y2="787.67"/><line class="cls-2" x1="21.01" y1="1587.67" x2="-778.99" y2="787.67"/><line class="cls-2" x1="581.01" y1="1587.67" x2="-218.99" y2="787.67"/><line class="cls-2" x1="421.01" y1="1587.67" x2="-378.99" y2="787.67"/><line class="cls-2" x1="261.01" y1="1587.67" x2="-538.99" y2="787.67"/><line class="cls-2" x1="101.01" y1="1587.67" x2="-698.99" y2="787.67"/><line class="cls-2" x1="-1138.99" y1="1947.67" x2="21.01" y2="787.67"/><line class="cls-2" x1="-1058.99" y1="2027.67" x2="181.01" y2="787.67"/><line class="cls-2" x1="-898.99" y1="2027.67" x2="341.01" y2="787.67"/><line class="cls-2" x1="-298.99" y1="1587.67" x2="501.01" y2="787.67"/><line class="cls-2" x1="-1058.99" y1="1947.67" x2="101.01" y2="787.67"/><line class="cls-2" x1="-888.58" y1="1941.89" x2="261.01" y2="787.67"/><line class="cls-2" x1="-378.99" y1="1587.67" x2="421.01" y2="787.67"/></g></g><g class="cls-4"><g><line class="cls-2" x1="919.01" y1="550" x2="-80.99" y2="-450"/><line class="cls-2" x1="719.01" y1="550" x2="-280.99" y2="-450"/><line class="cls-2" x1="519.01" y1="550" x2="-480.99" y2="-450"/><line class="cls-2" x1="319.01" y1="550" x2="-680.99" y2="-450"/><line class="cls-2" x1="119.01" y1="550" x2="-880.99" y2="-450"/><line class="cls-2" x1="1019.01" y1="550" x2="19.01" y2="-450"/><line class="cls-2" x1="819.01" y1="550" x2="-180.99" y2="-450"/><line class="cls-2" x1="619.01" y1="550" x2="-380.99" y2="-450"/><line class="cls-2" x1="419.01" y1="550" x2="-580.99" y2="-450"/><line class="cls-2" x1="219.01" y1="550" x2="-780.99" y2="-450"/><line class="cls-2" x1="-1330.99" y1="1000" x2="119.01" y2="-450"/><line class="cls-2" x1="-1130.99" y1="1000" x2="319.01" y2="-450"/><line class="cls-2" x1="-1030.99" y1="1100" x2="519.01" y2="-450"/><line class="cls-2" x1="-830.99" y1="1100" x2="719.01" y2="-450"/><line class="cls-2" x1="-80.99" y1="550" x2="919.01" y2="-450"/><line class="cls-2" x1="-1430.99" y1="1000" x2="19.01" y2="-450"/><line class="cls-2" x1="-1330.99" y1="1100" x2="219.01" y2="-450"/><line class="cls-2" x1="-1030.99" y1="1000" x2="419.01" y2="-450"/><line class="cls-2" x1="-817.97" y1="992.76" x2="619.01" y2="-450"/><line class="cls-2" x1="-180.99" y1="550" x2="819.01" y2="-450"/></g></g><g class="cls-5"><g><line class="cls-2" x1="2130" y1="950" x2="1130" y2="-50"/><line class="cls-2" x1="1930" y1="950" x2="930" y2="-50"/><line class="cls-2" x1="1730" y1="950" x2="730" y2="-50"/><line class="cls-2" x1="1530" y1="950" x2="530" y2="-50"/><line class="cls-2" x1="1330" y1="950" x2="830" y2="450"/><line class="cls-2" x1="1130" y1="950" x2="730" y2="550"/><line class="cls-2" x1="930" y1="950" x2="630" y2="650"/><line class="cls-2" x1="730" y1="950" x2="530" y2="750"/><line class="cls-2" x1="2230" y1="950" x2="1230" y2="-50"/><line class="cls-2" x1="2030" y1="950" x2="1030" y2="-50"/><line class="cls-2" x1="1830" y1="950" x2="830" y2="-50"/><line class="cls-2" x1="1630" y1="950" x2="630" y2="-50"/><line class="cls-2" x1="1430" y1="950" x2="430" y2="-50"/><line class="cls-2" x1="1230" y1="950" x2="780" y2="500"/><line class="cls-2" x1="1030" y1="950" x2="680" y2="600"/><line class="cls-2" x1="830" y1="950" x2="580" y2="700"/><line class="cls-2" x1="630" y1="950" x2="480" y2="800"/><line class="cls-2" x1="580" y1="100" x2="730" y2="-50"/><line class="cls-2" x1="680" y1="200" x2="930" y2="-50"/><line class="cls-2" x1="780" y1="300" x2="1130" y2="-50"/><line class="cls-2" x1="330" y1="950" x2="1330" y2="-50"/><line class="cls-2" x1="530" y1="950" x2="1530" y2="-50"/><line class="cls-2" x1="730" y1="950" x2="1730" y2="-50"/><line class="cls-2" x1="930" y1="950" x2="1930" y2="-50"/><line class="cls-2" x1="1130" y1="950" x2="2130" y2="-50"/><line class="cls-2" x1="530" y1="50" x2="630" y2="-50"/><line class="cls-2" x1="480" y1="0" x2="530" y2="-50"/><line class="cls-2" x1="630" y1="150" x2="830" y2="-50"/><line class="cls-2" x1="730" y1="250" x2="1030" y2="-50"/><line class="cls-2" x1="830" y1="350" x2="1230" y2="-50"/><line class="cls-2" x1="430" y1="950" x2="1430" y2="-50"/><line class="cls-2" x1="630" y1="950" x2="1630" y2="-50"/><line class="cls-2" x1="830" y1="950" x2="1830" y2="-50"/><line class="cls-2" x1="1030" y1="950" x2="2030" y2="-50"/><line class="cls-2" x1="1230" y1="950" x2="2230" y2="-50"/></g></g></svg>