<?xml version="1.0" encoding="UTF-8"?><svg id="BG" xmlns="http://www.w3.org/2000/svg" xmlns:xlink="http://www.w3.org/1999/xlink" viewBox="0 0 1024 640"><defs><style>.cls-1,.cls-2{fill:none;}.cls-3{clip-path:url(#clippath);}.cls-4{clip-path:url(#clippath-1);}.cls-2{stroke:#0072f7;stroke-miterlimit:10;stroke-width:.5px;}</style><clipPath id="clippath"><rect class="cls-1" width="1024" height="640"/></clipPath><clipPath id="clippath-1"><rect class="cls-1" x="95" y="963.04" width="834" height="720"/></clipPath></defs><g class="cls-3"><g><line class="cls-2" x1="1704" y1="440" x2="904" y2="-360"/><line class="cls-2" x1="1544" y1="440" x2="744" y2="-360"/><line class="cls-2" x1="1384" y1="440" x2="984" y2="40"/><line class="cls-2" x1="1224" y1="440" x2="904" y2="120"/><line class="cls-2" x1="1064" y1="440" x2="824" y2="200"/><line class="cls-2" x1="1119.63" y1="655.63" x2="744" y2="280"/><line class="cls-2" x1="1093.15" y1="789.15" x2="664" y2="360"/><line class="cls-2" x1="1104" y1="880" x2="624" y2="400"/><line class="cls-2" x1="1024" y1="880" x2="584" y2="440"/><line class="cls-2" x1="944" y1="880" x2="544" y2="480"/><line class="cls-2" x1="824" y1="840" x2="504" y2="520"/><line class="cls-2" x1="693.15" y1="789.15" x2="464" y2="560"/><line class="cls-2" x1="704" y1="880" x2="424" y2="600"/><line class="cls-2" x1="1784" y1="440" x2="984" y2="-360"/><line class="cls-2" x1="1624" y1="440" x2="824" y2="-360"/><line class="cls-2" x1="1304" y1="440" x2="944" y2="80"/><line class="cls-2" x1="1144" y1="440" x2="864" y2="160"/><line class="cls-2" x1="1126.29" y1="582.29" x2="784" y2="240"/><line class="cls-2" x1="1100.35" y1="716.35" x2="704" y2="320"/><line class="cls-2" x1="304" y1="720" x2="1384" y2="-360"/><line class="cls-2" x1="384" y1="800" x2="1544" y2="-360"/><line class="cls-2" x1="544" y1="800" x2="1704" y2="-360"/><line class="cls-2" x1="624" y1="880" x2="1864" y2="-360"/><line class="cls-2" x1="784" y1="880" x2="2024" y2="-360"/><line class="cls-2" x1="304" y1="800" x2="1464" y2="-360"/><line class="cls-2" x1="384" y1="880" x2="1624" y2="-360"/><line class="cls-2" x1="624" y1="800" x2="1784" y2="-360"/><line class="cls-2" x1="794.42" y1="794.21" x2="1944" y2="-360"/></g></g><g class="cls-4"><g><line class="cls-2" x1="1769" y1="1403.04" x2="969" y2="603.04"/><line class="cls-2" x1="1609" y1="1403.04" x2="809" y2="603.04"/><line class="cls-2" x1="1449" y1="1403.04" x2="649" y2="603.04"/><line class="cls-2" x1="1689" y1="1403.04" x2="889" y2="603.04"/><line class="cls-2" x1="1529" y1="1403.04" x2="729" y2="603.04"/><line class="cls-2" x1="689" y1="723.04" x2="809" y2="603.04"/><line class="cls-2" x1="849" y1="883.04" x2="1129" y2="603.04"/><line class="cls-2" x1="209" y1="1683.04" x2="1289" y2="603.04"/><line class="cls-2" x1="289" y1="1763.04" x2="1449" y2="603.04"/><line class="cls-2" x1="449" y1="1763.04" x2="1609" y2="603.04"/><line class="cls-2" x1="529" y1="1843.04" x2="1769" y2="603.04"/><line class="cls-2" x1="689" y1="1843.04" x2="1929" y2="603.04"/><line class="cls-2" x1="649" y1="683.04" x2="729" y2="603.04"/><line class="cls-2" x1="729" y1="763.04" x2="889" y2="603.04"/><line class="cls-2" x1="809" y1="843.04" x2="1049" y2="603.04"/><line class="cls-2" x1="889" y1="923.04" x2="1209" y2="603.04"/><line class="cls-2" x1="209" y1="1763.04" x2="1369" y2="603.04"/><line class="cls-2" x1="289" y1="1843.04" x2="1529" y2="603.04"/><line class="cls-2" x1="529" y1="1763.04" x2="1689" y2="603.04"/><line class="cls-2" x1="699.42" y1="1757.25" x2="1849" y2="603.04"/></g></g></svg>