<?xml version="1.0" encoding="UTF-8"?><svg id="BG" xmlns="http://www.w3.org/2000/svg" xmlns:xlink="http://www.w3.org/1999/xlink" viewBox="0 0 500 1000"><defs><style>.cls-1,.cls-2{fill:none;}.cls-3{clip-path:url(#clippath);}.cls-4{fill:#0072f7;}.cls-5{fill:#0f0f0f;}.cls-6{clip-path:url(#clippath-1);}.cls-7{clip-path:url(#clippath-3);}.cls-8{clip-path:url(#clippath-2);}.cls-2{stroke:#0072f7;stroke-miterlimit:10;stroke-width:.5px;}</style><clipPath id="clippath"><rect class="cls-1" x="-1955.86" y="-823.04" width="1024" height="640"/></clipPath><clipPath id="clippath-1"><rect class="cls-1" x="-1860.86" y="140" width="834" height="720"/></clipPath><clipPath id="clippath-2"><rect class="cls-1" x="-1860.86" y="1150.77" width="834" height="720"/></clipPath><clipPath id="clippath-3"><rect class="cls-1" width="500" height="1000"/></clipPath></defs><g class="cls-3"><line class="cls-2" x1="-1171.86" y1="56.96" x2="68.14" y2="-1183.04"/></g><g class="cls-6"><g><line class="cls-2" x1="133.14" y1="580" x2="-666.86" y2="-220"/><line class="cls-2" x1="213.14" y1="580" x2="-586.86" y2="-220"/><line class="cls-2" x1="53.14" y1="580" x2="-746.86" y2="-220"/><line class="cls-2" x1="-666.86" y1="580" x2="133.14" y2="-220"/><line class="cls-2" x1="-746.86" y1="580" x2="53.14" y2="-220"/></g></g><g class="cls-8"><g><line class="cls-2" x1="133.14" y1="1590.77" x2="-666.86" y2="790.77"/><line class="cls-2" x1="213.14" y1="1590.77" x2="-586.86" y2="790.77"/><line class="cls-2" x1="53.14" y1="1590.77" x2="-746.86" y2="790.77"/><line class="cls-2" x1="-666.86" y1="1590.77" x2="133.14" y2="790.77"/><line class="cls-2" x1="-746.86" y1="1590.77" x2="53.14" y2="790.77"/></g></g><g class="cls-7"><g><line class="cls-2" x1="50" x2="-967.37" y2="1017.37"/><line class="cls-2" x1="100" x2="-917.37" y2="1017.37"/><line class="cls-2" x1="150" x2="-867.37" y2="1017.37"/><line class="cls-2" x1="200" x2="-817.37" y2="1017.37"/><line class="cls-2" x1="250" x2="-767.37" y2="1017.37"/><line class="cls-2" x1="300" x2="-717.37" y2="1017.37"/><line class="cls-2" x1="350" x2="-667.37" y2="1017.37"/><line class="cls-2" x1="400" x2="-617.37" y2="1017.37"/><line class="cls-2" x1="450" x2="-567.37" y2="1017.37"/><line class="cls-2" x1="500" x2="-517.37" y2="1017.37"/><line class="cls-2" x1="550" x2="-467.37" y2="1017.37"/><line class="cls-2" x1="600" x2="-417.37" y2="1017.37"/><line class="cls-2" x1="650" x2="-367.37" y2="1017.37"/><line class="cls-2" x1="700" x2="-317.37" y2="1017.37"/><line class="cls-2" x1="750" x2="-267.37" y2="1017.37"/><line class="cls-2" x1="800" x2="-217.37" y2="1017.37"/><line class="cls-2" x1="850" x2="-167.37" y2="1017.37"/><line class="cls-2" x1="900" x2="-117.37" y2="1017.37"/><line class="cls-2" x1="950" x2="-67.37" y2="1017.37"/><line class="cls-2" x1="1000" x2="-17.37" y2="1017.37"/><line class="cls-2" x1="1050" x2="32.63" y2="1017.37"/><line class="cls-2" x1="1100" x2="82.63" y2="1017.37"/><line class="cls-2" x1="1150" x2="132.63" y2="1017.37"/><line class="cls-2" x1="1200" x2="182.63" y2="1017.37"/><line class="cls-2" x1="1250" x2="232.63" y2="1017.37"/><line class="cls-2" x1="1300" x2="282.63" y2="1017.37"/><line class="cls-2" x1="1350" x2="332.63" y2="1017.37"/><line class="cls-2" x1="1400" x2="382.63" y2="1017.37"/><line class="cls-2" x1="1450" x2="432.63" y2="1017.37"/><line class="cls-2" x1="450" y1="0" x2="1467.37" y2="1017.37"/><line class="cls-2" x1="400" y1="0" x2="1417.37" y2="1017.37"/><line class="cls-2" x1="350" y1="0" x2="1367.37" y2="1017.37"/><line class="cls-2" x1="300" y1="0" x2="1317.37" y2="1017.37"/><line class="cls-2" x1="250" y1="0" x2="1267.37" y2="1017.37"/><line class="cls-2" x1="200" y1="0" x2="1217.37" y2="1017.37"/><line class="cls-2" x1="150" y1="0" x2="1167.37" y2="1017.37"/><line class="cls-2" x1="100" y1="0" x2="1117.37" y2="1017.37"/><line class="cls-2" x1="50" y1="0" x2="1067.37" y2="1017.37"/><line class="cls-2" y1="0" x2="1017.37" y2="1017.37"/><line class="cls-2" x1="-50" y1="0" x2="967.37" y2="1017.37"/><line class="cls-2" x1="-100" y1="0" x2="917.37" y2="1017.37"/><line class="cls-2" x1="-150" y1="0" x2="867.37" y2="1017.37"/><line class="cls-2" x1="-200" y1="0" x2="817.37" y2="1017.37"/><line class="cls-2" x1="-250" y1="0" x2="767.37" y2="1017.37"/><line class="cls-2" x1="-300" y1="0" x2="717.37" y2="1017.37"/><line class="cls-2" x1="-350" y1="0" x2="667.37" y2="1017.37"/><line class="cls-2" x1="-400" y1="0" x2="617.37" y2="1017.37"/><line class="cls-2" x1="-450" y1="0" x2="567.37" y2="1017.37"/><line class="cls-2" x1="-500" y1="0" x2="517.37" y2="1017.37"/><line class="cls-2" x1="-550" y1="0" x2="467.37" y2="1017.37"/><line class="cls-2" x1="-600" y1="0" x2="417.37" y2="1017.37"/><line class="cls-2" x1="-650" y1="0" x2="367.37" y2="1017.37"/><line class="cls-2" x1="-700" y1="0" x2="317.37" y2="1017.37"/><line class="cls-2" x1="-750" y1="0" x2="267.37" y2="1017.37"/><line class="cls-2" x1="-800" y1="0" x2="217.37" y2="1017.37"/><line class="cls-2" x1="-850" y1="0" x2="167.37" y2="1017.37"/><line class="cls-2" x1="-900" y1="0" x2="117.37" y2="1017.37"/><line class="cls-2" x1="-950" y1="0" x2="67.37" y2="1017.37"/></g></g><g><path class="cls-5" d="M350,900l-50,50-50-50,50-50,50,50Z"/><path class="cls-4" d="M250,900h-100l50-50,50,50Z"/></g></svg>